<svg width="30" height="44" viewBox="0 0 30 44" fill="none" xmlns="http://www.w3.org/2000/svg">
<path d="M8.35938 37.6748H6.55762L6.54785 36.918H8.18359C8.45378 36.918 8.68978 36.8724 8.8916 36.7812C9.09342 36.6901 9.24967 36.5599 9.36035 36.3906C9.47428 36.2181 9.53125 36.013 9.53125 35.7754C9.53125 35.515 9.48079 35.3034 9.37988 35.1406C9.28223 34.9746 9.13086 34.8542 8.92578 34.7793C8.72396 34.7012 8.4668 34.6621 8.1543 34.6621H6.76758V41H5.8252V33.8906H8.1543C8.51888 33.8906 8.8444 33.9281 9.13086 34.0029C9.41732 34.0745 9.65983 34.1885 9.8584 34.3447C10.0602 34.4977 10.2132 34.693 10.3174 34.9307C10.4215 35.1683 10.4736 35.4531 10.4736 35.7852C10.4736 36.0781 10.3988 36.3434 10.249 36.5811C10.0993 36.8154 9.89095 37.0075 9.62402 37.1572C9.36035 37.307 9.05111 37.403 8.69629 37.4453L8.35938 37.6748ZM8.31543 41H6.18652L6.71875 40.2334H8.31543C8.61491 40.2334 8.86882 40.1813 9.07715 40.0771C9.28874 39.973 9.44987 39.8265 9.56055 39.6377C9.67122 39.4456 9.72656 39.2194 9.72656 38.959C9.72656 38.6953 9.67936 38.4674 9.58496 38.2754C9.49056 38.0833 9.34245 37.9352 9.14062 37.8311C8.9388 37.7269 8.67839 37.6748 8.35938 37.6748H7.0166L7.02637 36.918H8.8623L9.0625 37.1914C9.4043 37.2207 9.69401 37.3184 9.93164 37.4844C10.1693 37.6471 10.3499 37.8555 10.4736 38.1094C10.6006 38.3633 10.6641 38.6432 10.6641 38.9492C10.6641 39.3919 10.5664 39.7663 10.3711 40.0723C10.179 40.375 9.90723 40.6061 9.55566 40.7656C9.2041 40.9219 8.79069 41 8.31543 41ZM15.0342 40.0967V37.377C15.0342 37.1686 14.9919 36.988 14.9072 36.835C14.8258 36.6787 14.7021 36.5583 14.5361 36.4736C14.3701 36.389 14.165 36.3467 13.9209 36.3467C13.693 36.3467 13.4928 36.3857 13.3203 36.4639C13.151 36.542 13.0176 36.6445 12.9199 36.7715C12.8255 36.8984 12.7783 37.0352 12.7783 37.1816H11.875C11.875 36.9928 11.9238 36.8057 12.0215 36.6201C12.1191 36.4346 12.2591 36.2669 12.4414 36.1172C12.627 35.9642 12.8483 35.8438 13.1055 35.7559C13.3659 35.6647 13.6556 35.6191 13.9746 35.6191C14.3587 35.6191 14.6973 35.6842 14.9902 35.8145C15.2865 35.9447 15.5176 36.1416 15.6836 36.4053C15.8529 36.6657 15.9375 36.9928 15.9375 37.3867V39.8477C15.9375 40.0234 15.9521 40.2106 15.9814 40.4092C16.014 40.6077 16.0612 40.7786 16.123 40.9219V41H15.1807C15.1351 40.8958 15.0993 40.7575 15.0732 40.585C15.0472 40.4092 15.0342 40.2464 15.0342 40.0967ZM15.1904 37.7969L15.2002 38.4316H14.2871C14.0299 38.4316 13.8005 38.4528 13.5986 38.4951C13.3968 38.5342 13.2275 38.5944 13.0908 38.6758C12.9541 38.7572 12.8499 38.8597 12.7783 38.9834C12.7067 39.1038 12.6709 39.2454 12.6709 39.4082C12.6709 39.5742 12.7083 39.7256 12.7832 39.8623C12.8581 39.999 12.9704 40.1081 13.1201 40.1895C13.2731 40.2676 13.4603 40.3066 13.6816 40.3066C13.9583 40.3066 14.2025 40.248 14.4141 40.1309C14.6257 40.0137 14.7933 39.8704 14.917 39.7012C15.0439 39.5319 15.1123 39.3675 15.1221 39.208L15.5078 39.6426C15.485 39.7793 15.4232 39.9307 15.3223 40.0967C15.2214 40.2627 15.0863 40.4222 14.917 40.5752C14.751 40.7249 14.5524 40.8503 14.3213 40.9512C14.0934 41.0488 13.8363 41.0977 13.5498 41.0977C13.1917 41.0977 12.8776 41.0277 12.6074 40.8877C12.3405 40.7477 12.1322 40.5605 11.9824 40.3262C11.8359 40.0885 11.7627 39.8232 11.7627 39.5303C11.7627 39.2471 11.818 38.998 11.9287 38.7832C12.0394 38.5651 12.1989 38.3844 12.4072 38.2412C12.6156 38.0947 12.8662 37.984 13.1592 37.9092C13.4521 37.8343 13.7793 37.7969 14.1406 37.7969H15.1904ZM20.7812 35.7168H21.6016V40.8877C21.6016 41.3532 21.5072 41.7503 21.3184 42.0791C21.1296 42.4079 20.8659 42.6569 20.5273 42.8262C20.1921 42.9987 19.8047 43.085 19.3652 43.085C19.1829 43.085 18.9681 43.0557 18.7207 42.9971C18.4766 42.9417 18.2357 42.8457 17.998 42.709C17.7637 42.5755 17.5667 42.3949 17.4072 42.167L17.8809 41.6299C18.1022 41.8968 18.3333 42.0824 18.5742 42.1865C18.8184 42.2907 19.0592 42.3428 19.2969 42.3428C19.5833 42.3428 19.8307 42.2891 20.0391 42.1816C20.2474 42.0742 20.4085 41.9147 20.5225 41.7031C20.6396 41.4948 20.6982 41.2376 20.6982 40.9316V36.8789L20.7812 35.7168ZM17.1436 38.417V38.3145C17.1436 37.9108 17.1908 37.5446 17.2852 37.2158C17.3828 36.8838 17.5212 36.599 17.7002 36.3613C17.8825 36.1237 18.1022 35.9414 18.3594 35.8145C18.6165 35.6842 18.9062 35.6191 19.2285 35.6191C19.5605 35.6191 19.8503 35.6777 20.0977 35.7949C20.3483 35.9089 20.5599 36.0765 20.7324 36.2979C20.9082 36.516 21.0465 36.7796 21.1475 37.0889C21.2484 37.3981 21.3184 37.748 21.3574 38.1387V38.5879C21.3216 38.9753 21.2516 39.3236 21.1475 39.6328C21.0465 39.9421 20.9082 40.2057 20.7324 40.4238C20.5599 40.6419 20.3483 40.8096 20.0977 40.9268C19.847 41.0407 19.554 41.0977 19.2188 41.0977C18.903 41.0977 18.6165 41.0309 18.3594 40.8975C18.1055 40.764 17.8874 40.5768 17.7051 40.3359C17.5228 40.0951 17.3828 39.8118 17.2852 39.4863C17.1908 39.1576 17.1436 38.8011 17.1436 38.417ZM18.0469 38.3145V38.417C18.0469 38.6807 18.0729 38.9281 18.125 39.1592C18.1803 39.3903 18.2633 39.5938 18.374 39.7695C18.488 39.9453 18.6328 40.0837 18.8086 40.1846C18.9844 40.2822 19.1943 40.3311 19.4385 40.3311C19.738 40.3311 19.9854 40.2676 20.1807 40.1406C20.376 40.0137 20.5306 39.846 20.6445 39.6377C20.7617 39.4294 20.8529 39.2031 20.918 38.959V37.7822C20.8822 37.6032 20.8268 37.4307 20.752 37.2646C20.6803 37.0954 20.5859 36.9456 20.4688 36.8154C20.3548 36.682 20.2132 36.5762 20.0439 36.498C19.8747 36.4199 19.6761 36.3809 19.4482 36.3809C19.2008 36.3809 18.9876 36.4329 18.8086 36.5371C18.6328 36.638 18.488 36.778 18.374 36.957C18.2633 37.1328 18.1803 37.3379 18.125 37.5723C18.0729 37.8034 18.0469 38.0508 18.0469 38.3145Z" fill="#9B9B9B"/>
<path d="M26.4558 24.5187L26.4583 24.542L26.4629 24.565C26.4867 24.6823 26.5 24.796 26.5 24.9091C26.5 25.8094 25.8081 26.5 25 26.5H15H5C4.19186 26.5 3.5 25.8094 3.5 24.9091C3.5 24.796 3.51331 24.6823 3.53706 24.565L3.54172 24.542L3.5442 24.5187L5.4972 6.14375L5.5 6.11741V6.09091C5.5 5.19065 6.19186 4.5 7 4.5H15H23C23.8081 4.5 24.5 5.19065 24.5 6.09091V6.11741L24.5028 6.14375L26.4558 24.5187ZM20.5 10.2727V9.44368C21.1009 9.08516 21.5 8.41815 21.5 7.65909C21.5 6.53849 20.6249 5.59091 19.5 5.59091C18.3751 5.59091 17.5 6.53849 17.5 7.65909V10.2727C17.5 11.7469 16.3571 12.9091 15 12.9091C13.6429 12.9091 12.5 11.7469 12.5 10.2727V7.65909C12.5 6.53849 11.6249 5.59091 10.5 5.59091C9.37514 5.59091 8.5 6.53849 8.5 7.65909C8.5 8.41815 8.89908 9.08516 9.5 9.44368V10.2727C9.5 13.41 11.9461 16 15 16C18.0539 16 20.5 13.41 20.5 10.2727Z" stroke="#9B9B9B"/>
</svg>
