<svg width="49" height="50" viewBox="0 0 49 50" fill="none" xmlns="http://www.w3.org/2000/svg">
<g filter="url(#filter0_d_50_693)">
<path d="M5.76758 33.8906V41H4.8252V33.8906H5.76758ZM8.74609 37.0889V37.8604H5.5625V37.0889H8.74609ZM9.22949 33.8906V34.6621H5.5625V33.8906H9.22949ZM13.165 40.0967V37.377C13.165 37.1686 13.1227 36.988 13.0381 36.835C12.9567 36.6787 12.833 36.5583 12.667 36.4736C12.501 36.389 12.2959 36.3467 12.0518 36.3467C11.8239 36.3467 11.6237 36.3857 11.4512 36.4639C11.2819 36.542 11.1484 36.6445 11.0508 36.7715C10.9564 36.8984 10.9092 37.0352 10.9092 37.1816H10.0059C10.0059 36.9928 10.0547 36.8057 10.1523 36.6201C10.25 36.4346 10.39 36.2669 10.5723 36.1172C10.7578 35.9642 10.9792 35.8438 11.2363 35.7559C11.4967 35.6647 11.7865 35.6191 12.1055 35.6191C12.4896 35.6191 12.8281 35.6842 13.1211 35.8145C13.4173 35.9447 13.6484 36.1416 13.8145 36.4053C13.9837 36.6657 14.0684 36.9928 14.0684 37.3867V39.8477C14.0684 40.0234 14.083 40.2106 14.1123 40.4092C14.1449 40.6077 14.1921 40.7786 14.2539 40.9219V41H13.3115C13.266 40.8958 13.2301 40.7575 13.2041 40.585C13.1781 40.4092 13.165 40.2464 13.165 40.0967ZM13.3213 37.7969L13.3311 38.4316H12.418C12.1608 38.4316 11.9313 38.4528 11.7295 38.4951C11.5277 38.5342 11.3584 38.5944 11.2217 38.6758C11.085 38.7572 10.9808 38.8597 10.9092 38.9834C10.8376 39.1038 10.8018 39.2454 10.8018 39.4082C10.8018 39.5742 10.8392 39.7256 10.9141 39.8623C10.9889 39.999 11.1012 40.1081 11.251 40.1895C11.404 40.2676 11.5911 40.3066 11.8125 40.3066C12.0892 40.3066 12.3333 40.248 12.5449 40.1309C12.7565 40.0137 12.9242 39.8704 13.0479 39.7012C13.1748 39.5319 13.2432 39.3675 13.2529 39.208L13.6387 39.6426C13.6159 39.7793 13.554 39.9307 13.4531 40.0967C13.3522 40.2627 13.2171 40.4222 13.0479 40.5752C12.8818 40.7249 12.6833 40.8503 12.4521 40.9512C12.2243 41.0488 11.9671 41.0977 11.6807 41.0977C11.3226 41.0977 11.0085 41.0277 10.7383 40.8877C10.4714 40.7477 10.263 40.5605 10.1133 40.3262C9.9668 40.0885 9.89355 39.8232 9.89355 39.5303C9.89355 39.2471 9.94889 38.998 10.0596 38.7832C10.1702 38.5651 10.3298 38.3844 10.5381 38.2412C10.7464 38.0947 10.9971 37.984 11.29 37.9092C11.583 37.8343 11.9102 37.7969 12.2715 37.7969H13.3213ZM17.0176 40.1846L18.4629 35.7168H19.3857L17.4863 41H16.8809L17.0176 40.1846ZM15.8115 35.7168L17.3008 40.209L17.4033 41H16.7979L14.8838 35.7168H15.8115ZM19.9375 38.417V38.3047C19.9375 37.9238 19.9928 37.5706 20.1035 37.2451C20.2142 36.9163 20.3737 36.6315 20.582 36.3906C20.7904 36.1465 21.0426 35.9577 21.3389 35.8242C21.6351 35.6875 21.9671 35.6191 22.335 35.6191C22.7061 35.6191 23.0397 35.6875 23.3359 35.8242C23.6354 35.9577 23.8893 36.1465 24.0977 36.3906C24.3092 36.6315 24.4704 36.9163 24.5811 37.2451C24.6917 37.5706 24.7471 37.9238 24.7471 38.3047V38.417C24.7471 38.7979 24.6917 39.151 24.5811 39.4766C24.4704 39.8021 24.3092 40.0869 24.0977 40.3311C23.8893 40.5719 23.637 40.7607 23.3408 40.8975C23.0479 41.0309 22.7158 41.0977 22.3447 41.0977C21.9736 41.0977 21.64 41.0309 21.3438 40.8975C21.0475 40.7607 20.7936 40.5719 20.582 40.3311C20.3737 40.0869 20.2142 39.8021 20.1035 39.4766C19.9928 39.151 19.9375 38.7979 19.9375 38.417ZM20.8408 38.3047V38.417C20.8408 38.6807 20.8717 38.9297 20.9336 39.1641C20.9954 39.3952 21.0882 39.6003 21.2119 39.7793C21.3389 39.9583 21.4967 40.0999 21.6855 40.2041C21.8743 40.305 22.0941 40.3555 22.3447 40.3555C22.5921 40.3555 22.8086 40.305 22.9941 40.2041C23.1829 40.0999 23.3392 39.9583 23.4629 39.7793C23.5866 39.6003 23.6794 39.3952 23.7412 39.1641C23.8063 38.9297 23.8389 38.6807 23.8389 38.417V38.3047C23.8389 38.0443 23.8063 37.7985 23.7412 37.5674C23.6794 37.333 23.585 37.1263 23.458 36.9473C23.3343 36.765 23.1781 36.6217 22.9893 36.5176C22.8037 36.4134 22.5856 36.3613 22.335 36.3613C22.0876 36.3613 21.8695 36.4134 21.6807 36.5176C21.4951 36.6217 21.3389 36.765 21.2119 36.9473C21.0882 37.1263 20.9954 37.333 20.9336 37.5674C20.8717 37.7985 20.8408 38.0443 20.8408 38.3047ZM26.7832 36.5469V41H25.8799V35.7168H26.7588L26.7832 36.5469ZM28.4336 35.6875L28.4287 36.5273C28.3538 36.5111 28.2822 36.5013 28.2139 36.498C28.1488 36.4915 28.0739 36.4883 27.9893 36.4883C27.7809 36.4883 27.597 36.5208 27.4375 36.5859C27.278 36.651 27.1429 36.7422 27.0322 36.8594C26.9215 36.9766 26.8337 37.1165 26.7686 37.2793C26.7067 37.4388 26.666 37.6146 26.6465 37.8066L26.3926 37.9531C26.3926 37.6341 26.4235 37.3346 26.4854 37.0547C26.5505 36.7747 26.6497 36.5273 26.7832 36.3125C26.9167 36.0944 27.0859 35.9251 27.291 35.8047C27.4993 35.681 27.7467 35.6191 28.0332 35.6191C28.0983 35.6191 28.1732 35.6273 28.2578 35.6436C28.3424 35.6566 28.401 35.6712 28.4336 35.6875ZM30.25 35.7168V41H29.3418V35.7168H30.25ZM29.2734 34.3154C29.2734 34.1689 29.3174 34.0452 29.4053 33.9443C29.4964 33.8434 29.6299 33.793 29.8057 33.793C29.9782 33.793 30.11 33.8434 30.2012 33.9443C30.2956 34.0452 30.3428 34.1689 30.3428 34.3154C30.3428 34.4554 30.2956 34.5758 30.2012 34.6768C30.11 34.7744 29.9782 34.8232 29.8057 34.8232C29.6299 34.8232 29.4964 34.7744 29.4053 34.6768C29.3174 34.5758 29.2734 34.4554 29.2734 34.3154ZM33.9121 35.7168V36.4102H31.0557V35.7168H33.9121ZM32.0225 34.4326H32.9258V39.6914C32.9258 39.8704 32.9535 40.0055 33.0088 40.0967C33.0641 40.1878 33.1357 40.248 33.2236 40.2773C33.3115 40.3066 33.4059 40.3213 33.5068 40.3213C33.5817 40.3213 33.6598 40.3148 33.7412 40.3018C33.8258 40.2855 33.8893 40.2725 33.9316 40.2627L33.9365 41C33.8649 41.0228 33.7705 41.0439 33.6533 41.0635C33.5394 41.0863 33.401 41.0977 33.2383 41.0977C33.0169 41.0977 32.8135 41.0537 32.6279 40.9658C32.4424 40.8779 32.2943 40.7314 32.1836 40.5264C32.0762 40.318 32.0225 40.0381 32.0225 39.6865V34.4326ZM37.1641 41.0977C36.7962 41.0977 36.4626 41.0358 36.1631 40.9121C35.8669 40.7852 35.6113 40.6077 35.3965 40.3799C35.1849 40.152 35.0221 39.8818 34.9082 39.5693C34.7943 39.2568 34.7373 38.915 34.7373 38.5439V38.3389C34.7373 37.9092 34.8008 37.5267 34.9277 37.1914C35.0547 36.8529 35.2272 36.5664 35.4453 36.332C35.6634 36.0977 35.9108 35.9202 36.1875 35.7998C36.4642 35.6794 36.7507 35.6191 37.0469 35.6191C37.4245 35.6191 37.75 35.6842 38.0234 35.8145C38.3001 35.9447 38.5264 36.127 38.7021 36.3613C38.8779 36.5924 39.0081 36.8659 39.0928 37.1816C39.1774 37.4941 39.2197 37.8359 39.2197 38.207V38.6123H35.2744V37.875H38.3164V37.8066C38.3034 37.5723 38.2546 37.3444 38.1699 37.123C38.0885 36.9017 37.9583 36.7194 37.7793 36.5762C37.6003 36.4329 37.3561 36.3613 37.0469 36.3613C36.8418 36.3613 36.653 36.4053 36.4805 36.4932C36.3079 36.5778 36.1598 36.7048 36.0361 36.874C35.9124 37.0433 35.8164 37.25 35.748 37.4941C35.6797 37.7383 35.6455 38.0199 35.6455 38.3389V38.5439C35.6455 38.7946 35.6797 39.0306 35.748 39.252C35.8197 39.4701 35.9222 39.6621 36.0557 39.8281C36.1924 39.9941 36.3568 40.1243 36.5488 40.2188C36.7441 40.3132 36.9655 40.3604 37.2129 40.3604C37.5319 40.3604 37.8021 40.2952 38.0234 40.165C38.2448 40.0348 38.4385 39.8607 38.6045 39.6426L39.1514 40.0771C39.0374 40.2497 38.8926 40.4141 38.7168 40.5703C38.541 40.7266 38.3245 40.8535 38.0674 40.9512C37.8135 41.0488 37.5124 41.0977 37.1641 41.0977ZM43.3506 39.5986C43.3506 39.4684 43.3213 39.348 43.2627 39.2373C43.2074 39.1234 43.0918 39.0208 42.916 38.9297C42.7435 38.8353 42.4831 38.7539 42.1348 38.6855C41.8418 38.6237 41.5765 38.5505 41.3389 38.4658C41.1045 38.3812 40.9043 38.2786 40.7383 38.1582C40.5755 38.0378 40.4502 37.8962 40.3623 37.7334C40.2744 37.5706 40.2305 37.3802 40.2305 37.1621C40.2305 36.9538 40.276 36.7568 40.3672 36.5713C40.4616 36.3857 40.5934 36.2214 40.7627 36.0781C40.9352 35.9349 41.1419 35.8226 41.3828 35.7412C41.6237 35.6598 41.8923 35.6191 42.1885 35.6191C42.6117 35.6191 42.973 35.694 43.2725 35.8438C43.5719 35.9935 43.8014 36.1937 43.9609 36.4443C44.1204 36.6917 44.2002 36.9668 44.2002 37.2695H43.2969C43.2969 37.123 43.2529 36.9814 43.165 36.8447C43.0804 36.7048 42.9551 36.5892 42.7891 36.498C42.6263 36.4069 42.4261 36.3613 42.1885 36.3613C41.9378 36.3613 41.7344 36.4004 41.5781 36.4785C41.4251 36.5534 41.3128 36.6494 41.2412 36.7666C41.1729 36.8838 41.1387 37.0075 41.1387 37.1377C41.1387 37.2354 41.1549 37.3232 41.1875 37.4014C41.2233 37.4762 41.2852 37.5462 41.373 37.6113C41.4609 37.6732 41.5846 37.7318 41.7441 37.7871C41.9036 37.8424 42.1071 37.8978 42.3545 37.9531C42.7874 38.0508 43.1439 38.168 43.4238 38.3047C43.7038 38.4414 43.9121 38.609 44.0488 38.8076C44.1855 39.0062 44.2539 39.2471 44.2539 39.5303C44.2539 39.7614 44.2051 39.973 44.1074 40.165C44.013 40.3571 43.8747 40.5231 43.6924 40.6631C43.5133 40.7998 43.2985 40.9072 43.0479 40.9854C42.8005 41.0602 42.5221 41.0977 42.2129 41.0977C41.7474 41.0977 41.3535 41.0146 41.0312 40.8486C40.709 40.6826 40.4648 40.4678 40.2988 40.2041C40.1328 39.9404 40.0498 39.6621 40.0498 39.3691H40.958C40.971 39.6165 41.0426 39.8135 41.1729 39.96C41.3031 40.1032 41.4626 40.2057 41.6514 40.2676C41.8402 40.3262 42.0273 40.3555 42.2129 40.3555C42.4603 40.3555 42.667 40.3229 42.833 40.2578C43.0023 40.1927 43.1309 40.1032 43.2188 39.9893C43.3066 39.8753 43.3506 39.7451 43.3506 39.5986Z" fill="#9B9B9B"/>
<path fill-rule="evenodd" clip-rule="evenodd" d="M26.079 27L24.1826 25.2736C17.4469 19.1657 13 15.1373 13 10.1935C13 6.16512 16.1651 3 20.1935 3C22.4692 3 24.6534 4.0594 26.079 5.73351C27.5046 4.0594 29.6888 3 31.9646 3C35.9929 3 39.158 6.16512 39.158 10.1935C39.158 15.1373 34.7112 19.1657 27.9755 25.2866L26.079 27Z" stroke="#9B9B9B"/>
</g>
<defs>
<filter id="filter0_d_50_693" x="0.825195" y="0" width="47.4287" height="49.0977" filterUnits="userSpaceOnUse" color-interpolation-filters="sRGB">
<feFlood flood-opacity="0" result="BackgroundImageFix"/>
<feColorMatrix in="SourceAlpha" type="matrix" values="0 0 0 0 0 0 0 0 0 0 0 0 0 0 0 0 0 0 127 0" result="hardAlpha"/>
<feOffset dy="4"/>
<feGaussianBlur stdDeviation="2"/>
<feComposite in2="hardAlpha" operator="out"/>
<feColorMatrix type="matrix" values="0 0 0 0 0 0 0 0 0 0 0 0 0 0 0 0 0 0 0.25 0"/>
<feBlend mode="normal" in2="BackgroundImageFix" result="effect1_dropShadow_50_693"/>
<feBlend mode="normal" in="SourceGraphic" in2="effect1_dropShadow_50_693" result="shape"/>
</filter>
</defs>
</svg>
