<svg width="30" height="44" viewBox="0 0 30 44" fill="none" xmlns="http://www.w3.org/2000/svg">
<path d="M6.39551 36.8252V37.8799H2.65527V36.8252H6.39551ZM3.02148 33.8906V41H1.67871V33.8906H3.02148ZM7.3916 33.8906V41H6.04883V33.8906H7.3916ZM8.43164 38.4121V38.3096C8.43164 37.9222 8.48698 37.5658 8.59766 37.2402C8.70833 36.9115 8.86947 36.6266 9.08105 36.3857C9.29264 36.1449 9.55143 35.9577 9.85742 35.8242C10.1634 35.6875 10.5117 35.6191 10.9023 35.6191C11.2995 35.6191 11.651 35.6875 11.957 35.8242C12.2663 35.9577 12.5267 36.1449 12.7383 36.3857C12.9499 36.6266 13.111 36.9115 13.2217 37.2402C13.3324 37.5658 13.3877 37.9222 13.3877 38.3096V38.4121C13.3877 38.7962 13.3324 39.1527 13.2217 39.4814C13.111 39.807 12.9499 40.0918 12.7383 40.3359C12.5267 40.5768 12.2679 40.764 11.9619 40.8975C11.6559 41.0309 11.306 41.0977 10.9121 41.0977C10.5215 41.0977 10.1715 41.0309 9.8623 40.8975C9.55306 40.764 9.29264 40.5768 9.08105 40.3359C8.86947 40.0918 8.70833 39.807 8.59766 39.4814C8.48698 39.1527 8.43164 38.7962 8.43164 38.4121ZM9.7207 38.3096V38.4121C9.7207 38.6432 9.74349 38.8597 9.78906 39.0615C9.83464 39.2633 9.90462 39.4408 9.99902 39.5938C10.0934 39.7467 10.2155 39.8672 10.3652 39.9551C10.5182 40.0397 10.7005 40.082 10.9121 40.082C11.1204 40.082 11.2995 40.0397 11.4492 39.9551C11.599 39.8672 11.721 39.7467 11.8154 39.5938C11.9131 39.4408 11.9847 39.2633 12.0303 39.0615C12.0758 38.8597 12.0986 38.6432 12.0986 38.4121V38.3096C12.0986 38.0817 12.0758 37.8685 12.0303 37.6699C11.9847 37.4681 11.9131 37.2907 11.8154 37.1377C11.721 36.9814 11.5973 36.8594 11.4443 36.7715C11.2946 36.6803 11.1139 36.6348 10.9023 36.6348C10.694 36.6348 10.515 36.6803 10.3652 36.7715C10.2155 36.8594 10.0934 36.9814 9.99902 37.1377C9.90462 37.2907 9.83464 37.4681 9.78906 37.6699C9.74349 37.8685 9.7207 38.0817 9.7207 38.3096ZM15.6094 36.8008V41H14.3203V35.7168H15.5361L15.6094 36.8008ZM15.4189 38.168H15.0234C15.0234 37.8001 15.0674 37.4616 15.1553 37.1523C15.2464 36.8431 15.3799 36.5745 15.5557 36.3467C15.7314 36.1156 15.9479 35.9365 16.2051 35.8096C16.4655 35.6826 16.7666 35.6191 17.1084 35.6191C17.346 35.6191 17.5641 35.6549 17.7627 35.7266C17.9613 35.7949 18.1322 35.904 18.2754 36.0537C18.4219 36.2002 18.5342 36.3923 18.6123 36.6299C18.6904 36.8643 18.7295 37.1458 18.7295 37.4746V41H17.4404V37.6064C17.4404 37.359 17.4046 37.1654 17.333 37.0254C17.2646 36.8854 17.1654 36.7878 17.0352 36.7324C16.9049 36.6738 16.7487 36.6445 16.5664 36.6445C16.3646 36.6445 16.1904 36.6852 16.0439 36.7666C15.9007 36.8447 15.7819 36.9538 15.6875 37.0938C15.5964 37.2337 15.528 37.3949 15.4824 37.5771C15.4401 37.7594 15.4189 37.9564 15.4189 38.168ZM18.6318 37.9287L18.0996 38.0264C18.1029 37.6943 18.1484 37.3835 18.2363 37.0938C18.3242 36.8008 18.4528 36.5452 18.6221 36.3271C18.7946 36.1058 19.0078 35.9333 19.2617 35.8096C19.5189 35.6826 19.8151 35.6191 20.1504 35.6191C20.4108 35.6191 20.6452 35.6566 20.8535 35.7314C21.0651 35.8031 21.2458 35.9186 21.3955 36.0781C21.5452 36.2344 21.6592 36.4378 21.7373 36.6885C21.8187 36.9391 21.8594 37.2451 21.8594 37.6064V41H20.5605V37.6016C20.5605 37.3444 20.5247 37.1475 20.4531 37.0107C20.3848 36.874 20.2855 36.7796 20.1553 36.7275C20.0251 36.6722 19.8721 36.6445 19.6963 36.6445C19.5173 36.6445 19.361 36.6787 19.2275 36.7471C19.0973 36.8122 18.9867 36.9033 18.8955 37.0205C18.8076 37.1377 18.7409 37.2744 18.6953 37.4307C18.653 37.5837 18.6318 37.7497 18.6318 37.9287ZM25.3896 41.0977C24.9893 41.0977 24.6296 41.0326 24.3105 40.9023C23.9915 40.7721 23.7197 40.5915 23.4951 40.3604C23.2738 40.126 23.1029 39.8542 22.9824 39.5449C22.8652 39.2324 22.8066 38.8971 22.8066 38.5391V38.3438C22.8066 37.9368 22.8652 37.5674 22.9824 37.2354C23.0996 36.9001 23.2656 36.612 23.4805 36.3711C23.6953 36.1302 23.9525 35.9447 24.252 35.8145C24.5514 35.6842 24.8818 35.6191 25.2432 35.6191C25.6175 35.6191 25.9479 35.6826 26.2344 35.8096C26.5208 35.9333 26.7601 36.109 26.9521 36.3369C27.1442 36.5648 27.2891 36.8382 27.3867 37.1572C27.4844 37.473 27.5332 37.8229 27.5332 38.207V38.749H23.3926V37.8604H26.2637V37.7627C26.2572 37.5576 26.2181 37.3704 26.1465 37.2012C26.0749 37.0286 25.9642 36.8919 25.8145 36.791C25.6647 36.6868 25.471 36.6348 25.2334 36.6348C25.0413 36.6348 24.8737 36.6771 24.7305 36.7617C24.5905 36.8431 24.4733 36.9603 24.3789 37.1133C24.2878 37.263 24.2194 37.4421 24.1738 37.6504C24.1283 37.8587 24.1055 38.0898 24.1055 38.3438V38.5391C24.1055 38.7604 24.1348 38.9655 24.1934 39.1543C24.2552 39.3431 24.3447 39.5075 24.4619 39.6475C24.5824 39.7842 24.7256 39.8916 24.8916 39.9697C25.0609 40.0446 25.2529 40.082 25.4678 40.082C25.738 40.082 25.9821 40.0299 26.2002 39.9258C26.4215 39.8184 26.6136 39.6605 26.7764 39.4521L27.4258 40.126C27.3151 40.2887 27.1654 40.445 26.9766 40.5947C26.791 40.7445 26.5664 40.8665 26.3027 40.9609C26.0391 41.0521 25.7347 41.0977 25.3896 41.0977Z" fill="#9B9B9B"/>
<g clip-path="url(#clip0_50_672)">
<path fill-rule="evenodd" clip-rule="evenodd" d="M12.2941 27V18.5294H17.9412V27H25V15.7059H29.2353L15.1176 3L1 15.7059H5.23529V27H12.2941Z" stroke="#9B9B9B"/>
</g>
<defs>
<clipPath id="clip0_50_672">
<rect width="30" height="30" fill="white"/>
</clipPath>
</defs>
</svg>
