<svg width="30" height="44" viewBox="0 0 30 44" fill="none" xmlns="http://www.w3.org/2000/svg">
<path d="M15.1408 27L15.1408 26.5H15.1408L15.1408 27ZM5 21.5577L4.50006 21.5502L4.49772 21.705L4.58334 21.8341L5 21.5577ZM25.2817 21.5577L25.6984 21.8341L25.784 21.705L25.7816 21.5502L25.2817 21.5577ZM15.1408 3.5C17.6703 3.5 19.7113 5.54093 19.7113 8.07042H20.7113C20.7113 4.98865 18.2226 2.5 15.1408 2.5V3.5ZM19.7113 8.07042C19.7113 10.5999 17.6703 12.6408 15.1408 12.6408V13.6408C18.2226 13.6408 20.7113 11.1522 20.7113 8.07042H19.7113ZM15.1408 12.6408C12.6113 12.6408 10.5704 10.5999 10.5704 8.07042H9.57041C9.57041 11.1522 12.0591 13.6408 15.1408 13.6408V12.6408ZM10.5704 8.07042C10.5704 5.54093 12.6113 3.5 15.1408 3.5V2.5C12.0591 2.5 9.57041 4.98865 9.57041 8.07042H10.5704ZM15.1408 26.5C11.2297 26.5 7.57865 24.5406 5.41666 21.2813L4.58334 21.8341C6.9306 25.3727 10.8945 27.5 15.1408 27.5L15.1408 26.5ZM5.49994 21.5653C5.50991 20.904 5.84489 20.2784 6.47245 19.6902C7.10211 19.1002 7.99222 18.5826 9.01476 18.1549C11.0619 17.2987 13.519 16.8521 15.1408 16.8521V15.8521C13.3824 15.8521 10.7945 16.3266 8.6289 17.2324C7.5451 17.6857 6.53697 18.2593 5.78865 18.9606C5.0382 19.6638 4.51544 20.5297 4.50006 21.5502L5.49994 21.5653ZM15.1408 16.8521C16.7541 16.8521 19.2113 17.2986 21.2608 18.155C22.2845 18.5827 23.1762 19.1004 23.8072 19.6906C24.4362 20.2789 24.7718 20.9045 24.7817 21.5653L25.7816 21.5502C25.7662 20.5293 25.242 19.6633 24.4903 18.9603C23.7407 18.2591 22.731 17.6855 21.6463 17.2323C19.4789 16.3267 16.891 15.8521 15.1408 15.8521V16.8521ZM24.865 21.2813C22.703 24.5406 19.052 26.5 15.1408 26.5L15.1408 27.5C19.3872 27.5 23.3511 25.3727 25.6984 21.8341L24.865 21.2813Z" fill="#9B9B9B"/>
<path d="M3.44727 38.2119H1.54785V37.4453H3.44727C3.8151 37.4453 4.11296 37.3867 4.34082 37.2695C4.56868 37.1523 4.7347 36.9896 4.83887 36.7812C4.94629 36.5729 5 36.3353 5 36.0684C5 35.8242 4.94629 35.5947 4.83887 35.3799C4.7347 35.165 4.56868 34.9925 4.34082 34.8623C4.11296 34.7288 3.8151 34.6621 3.44727 34.6621H1.76758V41H0.825195V33.8906H3.44727C3.98438 33.8906 4.43848 33.9834 4.80957 34.1689C5.18066 34.3545 5.46224 34.6117 5.6543 34.9404C5.84635 35.266 5.94238 35.6387 5.94238 36.0586C5.94238 36.5143 5.84635 36.9033 5.6543 37.2256C5.46224 37.5479 5.18066 37.7936 4.80957 37.9629C4.43848 38.1289 3.98438 38.2119 3.44727 38.2119ZM7.90039 36.5469V41H6.99707V35.7168H7.87598L7.90039 36.5469ZM9.55078 35.6875L9.5459 36.5273C9.47103 36.5111 9.39941 36.5013 9.33105 36.498C9.26595 36.4915 9.19108 36.4883 9.10645 36.4883C8.89811 36.4883 8.71419 36.5208 8.55469 36.5859C8.39518 36.651 8.26009 36.7422 8.14941 36.8594C8.03874 36.9766 7.95085 37.1165 7.88574 37.2793C7.82389 37.4388 7.7832 37.6146 7.76367 37.8066L7.50977 37.9531C7.50977 37.6341 7.54069 37.3346 7.60254 37.0547C7.66764 36.7747 7.76693 36.5273 7.90039 36.3125C8.03385 36.0944 8.20312 35.9251 8.4082 35.8047C8.61654 35.681 8.86393 35.6191 9.15039 35.6191C9.21549 35.6191 9.29036 35.6273 9.375 35.6436C9.45964 35.6566 9.51823 35.6712 9.55078 35.6875ZM10.0488 38.417V38.3047C10.0488 37.9238 10.1042 37.5706 10.2148 37.2451C10.3255 36.9163 10.485 36.6315 10.6934 36.3906C10.9017 36.1465 11.154 35.9577 11.4502 35.8242C11.7464 35.6875 12.0785 35.6191 12.4463 35.6191C12.8174 35.6191 13.151 35.6875 13.4473 35.8242C13.7467 35.9577 14.0007 36.1465 14.209 36.3906C14.4206 36.6315 14.5817 36.9163 14.6924 37.2451C14.8031 37.5706 14.8584 37.9238 14.8584 38.3047V38.417C14.8584 38.7979 14.8031 39.151 14.6924 39.4766C14.5817 39.8021 14.4206 40.0869 14.209 40.3311C14.0007 40.5719 13.7484 40.7607 13.4521 40.8975C13.1592 41.0309 12.8271 41.0977 12.4561 41.0977C12.085 41.0977 11.7513 41.0309 11.4551 40.8975C11.1589 40.7607 10.9049 40.5719 10.6934 40.3311C10.485 40.0869 10.3255 39.8021 10.2148 39.4766C10.1042 39.151 10.0488 38.7979 10.0488 38.417ZM10.9521 38.3047V38.417C10.9521 38.6807 10.9831 38.9297 11.0449 39.1641C11.1068 39.3952 11.1995 39.6003 11.3232 39.7793C11.4502 39.9583 11.6081 40.0999 11.7969 40.2041C11.9857 40.305 12.2054 40.3555 12.4561 40.3555C12.7035 40.3555 12.9199 40.305 13.1055 40.2041C13.2943 40.0999 13.4505 39.9583 13.5742 39.7793C13.6979 39.6003 13.7907 39.3952 13.8525 39.1641C13.9176 38.9297 13.9502 38.6807 13.9502 38.417V38.3047C13.9502 38.0443 13.9176 37.7985 13.8525 37.5674C13.7907 37.333 13.6963 37.1263 13.5693 36.9473C13.4456 36.765 13.2894 36.6217 13.1006 36.5176C12.915 36.4134 12.6969 36.3613 12.4463 36.3613C12.1989 36.3613 11.9808 36.4134 11.792 36.5176C11.6064 36.6217 11.4502 36.765 11.3232 36.9473C11.1995 37.1263 11.1068 37.333 11.0449 37.5674C10.9831 37.7985 10.9521 38.0443 10.9521 38.3047ZM17.1973 41H16.2939V35.2578C16.2939 34.8574 16.3721 34.5189 16.5283 34.2422C16.6846 33.9655 16.9076 33.7555 17.1973 33.6123C17.487 33.4691 17.8304 33.3975 18.2275 33.3975C18.4619 33.3975 18.6914 33.4268 18.916 33.4854C19.1406 33.5407 19.3717 33.6107 19.6094 33.6953L19.458 34.457C19.3083 34.3984 19.1341 34.3431 18.9355 34.291C18.7402 34.2357 18.5254 34.208 18.291 34.208C17.9036 34.208 17.6237 34.2959 17.4512 34.4717C17.2819 34.6442 17.1973 34.9062 17.1973 35.2578V41ZM18.2764 35.7168V36.4102H15.459V35.7168H18.2764ZM20.0537 35.7168V41H19.1504V35.7168H20.0537ZM22.5195 33.5V41H21.6113V33.5H22.5195ZM26.1621 41.0977C25.7943 41.0977 25.4606 41.0358 25.1611 40.9121C24.8649 40.7852 24.6094 40.6077 24.3945 40.3799C24.1829 40.152 24.0202 39.8818 23.9062 39.5693C23.7923 39.2568 23.7354 38.915 23.7354 38.5439V38.3389C23.7354 37.9092 23.7988 37.5267 23.9258 37.1914C24.0527 36.8529 24.2253 36.5664 24.4434 36.332C24.6615 36.0977 24.9089 35.9202 25.1855 35.7998C25.4622 35.6794 25.7487 35.6191 26.0449 35.6191C26.4225 35.6191 26.748 35.6842 27.0215 35.8145C27.2982 35.9447 27.5244 36.127 27.7002 36.3613C27.876 36.5924 28.0062 36.8659 28.0908 37.1816C28.1755 37.4941 28.2178 37.8359 28.2178 38.207V38.6123H24.2725V37.875H27.3145V37.8066C27.3014 37.5723 27.2526 37.3444 27.168 37.123C27.0866 36.9017 26.9564 36.7194 26.7773 36.5762C26.5983 36.4329 26.3542 36.3613 26.0449 36.3613C25.8398 36.3613 25.651 36.4053 25.4785 36.4932C25.306 36.5778 25.1579 36.7048 25.0342 36.874C24.9105 37.0433 24.8145 37.25 24.7461 37.4941C24.6777 37.7383 24.6436 38.0199 24.6436 38.3389V38.5439C24.6436 38.7946 24.6777 39.0306 24.7461 39.252C24.8177 39.4701 24.9202 39.6621 25.0537 39.8281C25.1904 39.9941 25.3548 40.1243 25.5469 40.2188C25.7422 40.3132 25.9635 40.3604 26.2109 40.3604C26.5299 40.3604 26.8001 40.2952 27.0215 40.165C27.2428 40.0348 27.4365 39.8607 27.6025 39.6426L28.1494 40.0771C28.0355 40.2497 27.8906 40.4141 27.7148 40.5703C27.5391 40.7266 27.3226 40.8535 27.0654 40.9512C26.8115 41.0488 26.5104 41.0977 26.1621 41.0977Z" fill="#9B9B9B"/>
</svg>
