<svg width="30" height="44" viewBox="0 0 30 44" fill="none" xmlns="http://www.w3.org/2000/svg">
<path d="M6.61426 39.2031C6.61426 39.0371 6.58822 38.8906 6.53613 38.7637C6.4873 38.6335 6.39941 38.5163 6.27246 38.4121C6.14876 38.3079 5.97624 38.2087 5.75488 38.1143C5.53678 38.0199 5.26009 37.9238 4.9248 37.8262C4.57324 37.722 4.25586 37.6064 3.97266 37.4795C3.68945 37.3493 3.44694 37.2012 3.24512 37.0352C3.04329 36.8691 2.88867 36.6787 2.78125 36.4639C2.67383 36.249 2.62012 36.0033 2.62012 35.7266C2.62012 35.4499 2.67708 35.1943 2.79102 34.96C2.90495 34.7256 3.06771 34.5221 3.2793 34.3496C3.49414 34.1738 3.74967 34.0371 4.0459 33.9395C4.34212 33.8418 4.67253 33.793 5.03711 33.793C5.57096 33.793 6.02344 33.8955 6.39453 34.1006C6.76888 34.3024 7.05371 34.5677 7.24902 34.8965C7.44434 35.222 7.54199 35.5703 7.54199 35.9414H6.60449C6.60449 35.6745 6.54753 35.4385 6.43359 35.2334C6.31966 35.0251 6.14714 34.8623 5.91602 34.7451C5.6849 34.6247 5.39193 34.5645 5.03711 34.5645C4.70182 34.5645 4.42513 34.6149 4.20703 34.7158C3.98893 34.8167 3.82617 34.9535 3.71875 35.126C3.61458 35.2985 3.5625 35.4954 3.5625 35.7168C3.5625 35.8665 3.59342 36.0033 3.65527 36.127C3.72038 36.2474 3.81966 36.3597 3.95312 36.4639C4.08984 36.568 4.26237 36.6641 4.4707 36.752C4.68229 36.8398 4.93457 36.9245 5.22754 37.0059C5.63118 37.1198 5.97949 37.2467 6.27246 37.3867C6.56543 37.5267 6.80632 37.6846 6.99512 37.8604C7.18717 38.0329 7.32878 38.2298 7.41992 38.4512C7.51432 38.6693 7.56152 38.9167 7.56152 39.1934C7.56152 39.4831 7.50293 39.7451 7.38574 39.9795C7.26855 40.2139 7.10091 40.4141 6.88281 40.5801C6.66471 40.7461 6.40267 40.8747 6.09668 40.9658C5.79395 41.0537 5.4554 41.0977 5.08105 41.0977C4.75228 41.0977 4.42839 41.0521 4.10938 40.9609C3.79362 40.8698 3.50553 40.7331 3.24512 40.5508C2.98796 40.3685 2.78125 40.1439 2.625 39.877C2.47201 39.6068 2.39551 39.2943 2.39551 38.9395H3.33301C3.33301 39.1836 3.38021 39.3936 3.47461 39.5693C3.56901 39.7419 3.69759 39.8851 3.86035 39.999C4.02637 40.113 4.21354 40.1976 4.42188 40.2529C4.63346 40.305 4.85319 40.3311 5.08105 40.3311C5.40983 40.3311 5.68815 40.2855 5.91602 40.1943C6.14388 40.1032 6.31641 39.973 6.43359 39.8037C6.55404 39.6344 6.61426 39.4342 6.61426 39.2031ZM9.5293 33.5V41H8.62598V33.5H9.5293ZM9.31445 38.1582L8.93848 38.1436C8.94173 37.7822 8.99544 37.4486 9.09961 37.1426C9.20378 36.8333 9.35026 36.5648 9.53906 36.3369C9.72786 36.109 9.95247 35.9333 10.2129 35.8096C10.4766 35.6826 10.7679 35.6191 11.0869 35.6191C11.3473 35.6191 11.5817 35.6549 11.79 35.7266C11.9984 35.7949 12.1758 35.9056 12.3223 36.0586C12.472 36.2116 12.5859 36.4102 12.6641 36.6543C12.7422 36.8952 12.7812 37.1898 12.7812 37.5381V41H11.873V37.5283C11.873 37.2516 11.8324 37.0303 11.751 36.8643C11.6696 36.695 11.5508 36.5729 11.3945 36.498C11.2383 36.4199 11.0462 36.3809 10.8184 36.3809C10.5938 36.3809 10.3887 36.4281 10.2031 36.5225C10.0208 36.6169 9.86296 36.7471 9.72949 36.9131C9.59928 37.0791 9.49674 37.2695 9.42188 37.4844C9.35026 37.696 9.31445 37.9206 9.31445 38.1582ZM13.8945 38.417V38.3047C13.8945 37.9238 13.9499 37.5706 14.0605 37.2451C14.1712 36.9163 14.3307 36.6315 14.5391 36.3906C14.7474 36.1465 14.9997 35.9577 15.2959 35.8242C15.5921 35.6875 15.9242 35.6191 16.292 35.6191C16.6631 35.6191 16.9967 35.6875 17.293 35.8242C17.5924 35.9577 17.8464 36.1465 18.0547 36.3906C18.2663 36.6315 18.4274 36.9163 18.5381 37.2451C18.6488 37.5706 18.7041 37.9238 18.7041 38.3047V38.417C18.7041 38.7979 18.6488 39.151 18.5381 39.4766C18.4274 39.8021 18.2663 40.0869 18.0547 40.3311C17.8464 40.5719 17.5941 40.7607 17.2979 40.8975C17.0049 41.0309 16.6729 41.0977 16.3018 41.0977C15.9307 41.0977 15.597 41.0309 15.3008 40.8975C15.0046 40.7607 14.7507 40.5719 14.5391 40.3311C14.3307 40.0869 14.1712 39.8021 14.0605 39.4766C13.9499 39.151 13.8945 38.7979 13.8945 38.417ZM14.7979 38.3047V38.417C14.7979 38.6807 14.8288 38.9297 14.8906 39.1641C14.9525 39.3952 15.0452 39.6003 15.1689 39.7793C15.2959 39.9583 15.4538 40.0999 15.6426 40.2041C15.8314 40.305 16.0511 40.3555 16.3018 40.3555C16.5492 40.3555 16.7656 40.305 16.9512 40.2041C17.14 40.0999 17.2962 39.9583 17.4199 39.7793C17.5436 39.6003 17.6364 39.3952 17.6982 39.1641C17.7633 38.9297 17.7959 38.6807 17.7959 38.417V38.3047C17.7959 38.0443 17.7633 37.7985 17.6982 37.5674C17.6364 37.333 17.542 37.1263 17.415 36.9473C17.2913 36.765 17.1351 36.6217 16.9463 36.5176C16.7607 36.4134 16.5426 36.3613 16.292 36.3613C16.0446 36.3613 15.8265 36.4134 15.6377 36.5176C15.4521 36.6217 15.2959 36.765 15.1689 36.9473C15.0452 37.1263 14.9525 37.333 14.8906 37.5674C14.8288 37.7985 14.7979 38.0443 14.7979 38.3047ZM20.7402 36.7324V43.0312H19.832V35.7168H20.6621L20.7402 36.7324ZM24.2998 38.3145V38.417C24.2998 38.8011 24.2542 39.1576 24.1631 39.4863C24.0719 39.8118 23.9385 40.0951 23.7627 40.3359C23.5902 40.5768 23.377 40.764 23.123 40.8975C22.8691 41.0309 22.5778 41.0977 22.249 41.0977C21.9137 41.0977 21.6175 41.0423 21.3604 40.9316C21.1032 40.821 20.8851 40.6598 20.7061 40.4482C20.527 40.2367 20.3838 39.9827 20.2764 39.6865C20.1722 39.3903 20.1006 39.0566 20.0615 38.6855V38.1387C20.1006 37.748 20.1738 37.3981 20.2812 37.0889C20.3887 36.7796 20.5303 36.516 20.7061 36.2979C20.8851 36.0765 21.1016 35.9089 21.3555 35.7949C21.6094 35.6777 21.9023 35.6191 22.2344 35.6191C22.5664 35.6191 22.861 35.6842 23.1182 35.8145C23.3753 35.9414 23.5918 36.1237 23.7676 36.3613C23.9434 36.599 24.0752 36.8838 24.1631 37.2158C24.2542 37.5446 24.2998 37.9108 24.2998 38.3145ZM23.3916 38.417V38.3145C23.3916 38.0508 23.3639 37.8034 23.3086 37.5723C23.2533 37.3379 23.167 37.1328 23.0498 36.957C22.9359 36.778 22.7894 36.638 22.6104 36.5371C22.4313 36.4329 22.2181 36.3809 21.9707 36.3809C21.7428 36.3809 21.5443 36.4199 21.375 36.498C21.209 36.5762 21.0674 36.682 20.9502 36.8154C20.833 36.9456 20.737 37.0954 20.6621 37.2646C20.5905 37.4307 20.5368 37.6032 20.501 37.7822V39.0469C20.5661 39.2747 20.6572 39.4896 20.7744 39.6914C20.8916 39.89 21.0479 40.0511 21.2432 40.1748C21.4385 40.2952 21.6842 40.3555 21.9805 40.3555C22.2246 40.3555 22.4346 40.305 22.6104 40.2041C22.7894 40.0999 22.9359 39.9583 23.0498 39.7793C23.167 39.6003 23.2533 39.3952 23.3086 39.1641C23.3639 38.9297 23.3916 38.6807 23.3916 38.417Z" fill="#9B9B9B"/>
<path d="M3 5.4H2.5V5.9H3V5.4ZM5.4 5.4L5.85176 5.18573L5.71624 4.9H5.4V5.4ZM9.72 14.508L10.1579 14.7493L10.2815 14.5251L10.1718 14.2937L9.72 14.508ZM8.1 17.448L8.53417 17.6961L8.53792 17.6893L8.1 17.448ZM24.6 21V21.5H25.1V21H24.6ZM24.6 18.6H25.1V18.1H24.6V18.6ZM10.404 18.3L9.91893 18.1787L9.904 18.2384V18.3H10.404ZM10.44 18.156L10.0023 17.9143L9.97075 17.9714L9.95493 18.0347L10.44 18.156ZM11.52 16.2V15.7H11.2249L11.0823 15.9583L11.52 16.2ZM22.56 14.964L22.1222 14.7225L22.1216 14.7236L22.56 14.964ZM26.856 7.176L27.2938 7.41751L27.2958 7.41379L26.856 7.176ZM25.8 5.4L25.8012 4.9H25.8V5.4ZM8.052 5.4L7.59949 5.61268L7.73453 5.9H8.052V5.4ZM6.924 3L7.37651 2.78732L7.24147 2.5H6.924V3ZM10.2 21.7C8.60061 21.7 7.31201 23.0071 7.31201 24.6H8.31201C8.31201 23.5529 9.15941 22.7 10.2 22.7V21.7ZM7.31201 24.6C7.31201 26.1929 8.60061 27.5 10.2 27.5V26.5C9.15941 26.5 8.31201 25.6471 8.31201 24.6H7.31201ZM10.2 27.5C11.7962 27.5 13.1 26.1961 13.1 24.6H12.1C12.1 25.6439 11.2439 26.5 10.2 26.5V27.5ZM13.1 24.6C13.1 23.0039 11.7962 21.7 10.2 21.7V22.7C11.2439 22.7 12.1 23.5561 12.1 24.6H13.1ZM2.5 3V5.4H3.5V3H2.5ZM3 5.9H5.4V4.9H3V5.9ZM4.94824 5.61427L9.26824 14.7223L10.1718 14.2937L5.85176 5.18573L4.94824 5.61427ZM9.28208 14.2667L7.66208 17.2067L8.53792 17.6893L10.1579 14.7493L9.28208 14.2667ZM7.66588 17.1999C7.43007 17.6126 7.3 18.0943 7.3 18.6H8.3C8.3 18.2657 8.38593 17.9554 8.53412 17.6961L7.66588 17.1999ZM7.3 18.6C7.3 20.1961 8.60386 21.5 10.2 21.5V20.5C9.15614 20.5 8.3 19.6439 8.3 18.6H7.3ZM10.2 21.5H24.6V20.5H10.2V21.5ZM25.1 21V18.6H24.1V21H25.1ZM24.6 18.1H10.704V19.1H24.6V18.1ZM10.704 18.1C10.8121 18.1 10.904 18.1919 10.904 18.3H9.904C9.904 18.7441 10.2599 19.1 10.704 19.1V18.1ZM10.8891 18.4213L10.9251 18.2773L9.95493 18.0347L9.91893 18.1787L10.8891 18.4213ZM10.8777 18.3977L11.9577 16.4417L11.0823 15.9583L10.0023 17.9143L10.8777 18.3977ZM11.52 16.7H20.46V15.7H11.52V16.7ZM20.46 16.7C21.5457 16.7 22.5041 16.1058 22.9984 15.2044L22.1216 14.7236C21.7999 15.3102 21.1744 15.7 20.46 15.7V16.7ZM22.9978 15.2055L27.2938 7.4175L26.4182 6.9345L22.1222 14.7225L22.9978 15.2055ZM27.2958 7.41379C27.5809 6.88649 27.5679 6.24816 27.2615 5.73293L26.402 6.244C26.5285 6.4568 26.5339 6.72043 26.4162 6.93821L27.2958 7.41379ZM27.2615 5.73293C26.9552 5.2177 26.4006 4.90138 25.8012 4.9L25.7988 5.9C26.0464 5.90057 26.2755 6.03121 26.402 6.244L27.2615 5.73293ZM25.8 4.9H8.052V5.9H25.8V4.9ZM8.50451 5.18732L7.37651 2.78732L6.47149 3.21268L7.59949 5.61268L8.50451 5.18732ZM6.924 2.5H3V3.5H6.924V2.5ZM22.2 21.7C20.6006 21.7 19.312 23.0071 19.312 24.6H20.312C20.312 23.5529 21.1594 22.7 22.2 22.7V21.7ZM19.312 24.6C19.312 26.1929 20.6006 27.5 22.2 27.5V26.5C21.1594 26.5 20.312 25.6471 20.312 24.6H19.312ZM22.2 27.5C23.7962 27.5 25.1 26.1961 25.1 24.6H24.1C24.1 25.6439 23.2439 26.5 22.2 26.5V27.5ZM25.1 24.6C25.1 23.0039 23.7962 21.7 22.2 21.7V22.7C23.2439 22.7 24.1 23.5561 24.1 24.6H25.1Z" fill="#9B9B9B"/>
</svg>
